<?xml version="1.0" standalone="no"?>
<!DOCTYPE svg PUBLIC "-//W3C//DTD SVG 20010904//EN"
 "http://www.w3.org/TR/2001/REC-SVG-20010904/DTD/svg10.dtd">
<svg version="1.0" xmlns="http://www.w3.org/2000/svg"
 width="512.000000pt" height="512.000000pt" viewBox="0 0 512.000000 512.000000"
 preserveAspectRatio="xMidYMid meet">
<metadata>
Created by potrace 1.11, written by Peter Selinger 2001-2013
</metadata>
<g transform="translate(0.000000,512.000000) scale(0.100000,-0.100000)"
fill="#000000" stroke="none">
<path d="M1277 3533 c-4 -3 -7 -78 -7 -165 l0 -158 130 0 130 0 -5 -42 c-3
-24 -10 -108 -15 -188 -6 -80 -37 -532 -70 -1004 -33 -473 -60 -882 -60 -910
1 -65 26 -122 77 -167 74 -67 16 -64 1118 -64 l1000 0 41 22 c82 44 124 116
124 213 0 25 -25 428 -55 895 -30 468 -59 922 -65 1010 -5 88 -12 177 -14 198
l-4 37 124 0 124 0 -2 163 -3 162 -1281 3 c-704 1 -1284 -1 -1287 -5z m1543
-233 l0 -90 90 0 90 0 0 -59 0 -60 -125 -3 -125 -3 0 153 0 152 35 0 35 0 0
-90z m350 63 c0 -16 3 -65 6 -110 l7 -82 -39 -3 c-27 -2 -39 -8 -39 -18 0 -12
16 -16 73 -18 l72 -3 0 -37 c0 -20 3 -67 7 -104 l6 -68 -66 0 -66 0 -3 83 -3
82 -42 3 -43 3 0 80 0 79 -90 0 -90 0 0 70 0 70 155 0 155 0 0 -27z m210 18
c0 -5 3 -23 6 -40 l7 -31 -87 0 c-75 0 -86 2 -86 18 0 9 -3 27 -6 40 -6 22 -5
22 80 22 47 0 86 -4 86 -9z m14 -228 c3 -65 8 -144 11 -175 l5 -58 -54 0 -53
0 -7 117 c-4 64 -9 120 -12 125 -3 4 -18 8 -35 8 -28 0 -29 1 -29 50 l0 50 84
0 84 0 6 -117z m-304 -168 l0 -65 -132 0 c-73 0 -150 3 -170 6 l-38 7 0 58 0
59 170 0 170 0 0 -65z m-286 -1017 c3 -51 6 -280 7 -508 l2 -415 -94 0 -94 0
-3 508 -2 507 89 0 88 0 7 -92z"/>
</g>
</svg>
